<svg xmlns="http://www.w3.org/2000/svg" viewBox="0 0 100 100">
  <defs>
    <linearGradient id="bg" x1="0" y1="0" x2="1" y2="1">
      <stop offset="0%" stop-color="#7C6EF6"/>
      <stop offset="100%" stop-color="#EC72C2"/>
    </linearGradient>
  </defs>
  <rect width="100" height="100" rx="22" fill="url(#bg)"/>

  <circle cx="50" cy="54" r="26" fill="none" stroke="#ffffff" stroke-opacity="0.25" stroke-width="2"/>

  <g fill="none" stroke="#ffffff" stroke-width="3" stroke-linejoin="round" stroke-linecap="round">
    <path d="M50 40 C50 40 40 36 32 38 V64 C40 62 50 66 50 66 Z"/>
    <path d="M50 40 C50 40 60 36 68 38 V64 C60 62 50 66 50 66 Z"/>
  </g>

  <circle cx="50" cy="20" r="13" fill="#ffffff"/>
  <text x="50" y="25.5" font-size="16" text-anchor="middle" fill="#F5A524">★</text>

  <circle cx="24" cy="74" r="12" fill="#ffffff"/>
  <rect x="17" y="69" width="14" height="2.4" rx="1.2" fill="#7C6EF6"/>
  <rect x="17" y="74" width="14" height="2.4" rx="1.2" fill="#7C6EF6"/>
  <rect x="17" y="79" width="9" height="2.4" rx="1.2" fill="#7C6EF6"/>

  <circle cx="76" cy="74" r="12" fill="#ffffff"/>
  <rect x="68" y="67" width="16" height="13" rx="2.5" fill="none" stroke="#7C6EF6" stroke-width="2"/>
  <line x1="68" y1="71.5" x2="84" y2="71.5" stroke="#7C6EF6" stroke-width="2"/>
</svg>